<svg width="1194" height="396" viewBox="0 0 1194 396" fill="none" xmlns="http://www.w3.org/2000/svg">
<path d="M198 396C307.352 396 396 307.352 396 198C396 88.6476 307.352 0 198 0C88.6476 0 0 88.6476 0 198C0 307.352 88.6476 396 198 396Z" fill="#1A1A1A"/>
<path d="M238.707 249.582C257.426 260.393 280.985 273.141 284.374 297.83C309.063 291.214 345.694 283.469 336.334 261.523C324.716 211.176 297.768 166.477 277.919 118.874C276.467 115.485 275.337 111.612 274.692 108.062C272.271 95.3143 276.951 83.2118 278.081 70.141C273.24 70.7865 252.101 70.7865 240.159 85.6323C239.837 86.1164 237.416 70.9478 245.485 54.8111C232.091 50.7769 127.525 96.4439 92.5083 186.971C91.7014 166.155 100.093 130.492 128.816 90.796C173.192 29.3151 245.323 21.2467 291.958 32.0583C283.89 28.5082 282.76 26.2491 264.203 19.7944C253.392 15.9216 237.578 12.8556 230.477 12.8556C102.997 12.3715 20.3771 87.73 13.5996 220.535C8.43589 321.551 117.843 389.326 232.737 389.648C272.433 389.81 298.574 371.898 320.036 355.6C202.722 338.818 148.18 300.412 202.399 197.944C196.429 209.401 204.013 229.572 238.707 249.582ZM260.976 138.883C261.137 139.045 261.137 139.206 261.299 139.368C261.299 139.206 261.46 139.206 261.46 139.045C271.626 159.861 280.985 178.903 290.345 197.944C286.956 196.653 283.729 195.201 280.663 193.587C257.103 181 247.26 156.311 260.976 138.883Z" fill="#36B4D4"/>
<path d="M314.269 358.455C281.639 382.075 241.521 396 198.148 396C88.714 396 0 307.352 0 198C0 88.6476 88.714 0 198.148 0C257.341 0 310.471 25.9354 346.78 67.0545C315.213 39.2446 273.766 22.3729 228.374 22.3729C129.451 22.3729 49.2572 102.506 49.2572 201.356C49.2572 300.206 129.451 380.339 228.374 380.339C259.498 380.339 288.768 372.407 314.269 358.455Z" fill="#665EE1"/>
<path d="M909.651 260.183C906.208 255.645 903.548 250.638 901.358 245.318C895.412 231.392 889.153 217.465 882.424 203.852C873.349 185.232 854.729 175.218 834.231 178.034C806.222 181.946 787.601 209.642 796.051 237.338C797.146 240.78 798.398 244.066 800.432 247.039C799.806 244.222 799.181 241.562 799.181 238.746C799.024 235.929 799.181 233.113 799.493 230.296C802.936 207.451 825.468 192.743 847.374 196.811C856.45 198.532 862.552 204.322 866.934 212.302C868.968 216.214 869.437 219.813 868.342 224.037C865.838 233.113 862.239 241.406 855.042 247.665C840.02 260.809 822.652 253.611 815.923 239.998C812.637 233.113 812.168 225.915 814.202 218.717C815.454 214.023 817.957 210.111 821.087 206.512C820.617 206.512 820.304 206.669 819.991 206.825C807.474 214.023 800.276 228.575 802.31 242.814C805.283 263.938 825.781 277.864 846.592 273.014C861.926 269.415 871.941 259.713 879.295 246.57C879.921 245.318 880.547 244.066 881.173 242.658C882.424 245.318 883.676 247.821 884.928 250.168C887.901 256.114 891.5 261.435 896.664 265.816C904.957 272.701 914.501 273.17 924.203 267.224C917.631 268.006 913.25 264.877 909.651 260.183Z" fill="#262626"/>
<path d="M891.499 216.683C897.915 202.913 904.33 189.613 910.746 176C903.861 176 897.132 176 890.561 176C889.622 176 889.465 176.626 889.152 177.252C886.649 182.728 884.145 188.205 881.642 193.525C881.329 194.151 881.172 194.62 881.485 195.246C884.771 202.288 888.057 209.329 891.499 216.683Z" fill="#262626"/>
<path d="M492 273.97V142H546.55C550.733 142 554.915 142.534 559.276 143.513C563.547 144.492 567.551 146.538 571.2 149.475C574.849 152.412 577.785 156.861 579.921 162.734C582.146 168.608 583.213 176.35 583.213 186.138C583.213 195.927 582.057 203.758 579.832 209.72C577.607 215.683 574.582 220.221 571.022 223.425C567.373 226.628 563.458 228.764 559.187 229.832C554.915 230.989 550.911 231.523 546.906 231.523C544.859 231.523 542.368 231.434 539.342 231.256C536.316 231.078 533.113 230.811 529.909 230.544C526.617 230.277 523.591 229.921 520.832 229.654C518.074 229.387 515.76 229.12 514.158 228.853V273.881H492V273.97ZM513.98 211.589H543.613C547.084 211.589 550.11 210.788 552.69 209.187C555.271 207.585 557.318 204.915 558.742 201.356C560.165 197.707 560.877 192.724 560.877 186.405C560.877 180.176 560.165 175.282 558.653 171.722C557.14 168.163 555.182 165.582 552.779 164.158C550.377 162.645 547.529 161.933 544.325 161.933H513.98V211.589Z" fill="#262626"/>
<path d="M639.989 274.861C629.578 274.861 621.391 273.437 615.25 270.59C609.11 267.742 604.661 262.759 601.902 255.64C599.143 248.521 597.809 238.643 597.809 226.095C597.809 213.192 599.143 203.225 601.724 196.195C604.305 189.076 608.665 184.093 614.805 181.245C620.857 178.397 629.133 176.974 639.455 176.974C648.621 176.974 656.007 177.864 661.525 179.732C667.042 181.601 671.135 184.894 673.716 189.521C676.297 194.237 677.543 200.912 677.543 209.455C677.543 215.506 676.386 220.4 673.983 224.049C671.58 227.697 668.199 230.278 663.66 231.791C659.211 233.304 653.961 234.104 647.82 234.104H619.789C620.056 240.067 620.857 244.783 622.191 248.343C623.526 251.902 626.107 254.394 629.667 255.907C633.315 257.419 638.654 258.22 645.685 258.22H674.606V271.302C669.712 272.281 664.55 273.082 659.122 273.793C653.783 274.505 647.375 274.861 639.989 274.861ZM619.611 220.667H645.685C649.867 220.667 652.893 219.866 654.85 218.264C656.808 216.663 657.787 213.726 657.787 209.455C657.787 205.272 657.164 201.979 656.007 199.666C654.85 197.263 652.893 195.572 650.134 194.593C647.375 193.615 643.816 193.081 639.366 193.081C634.383 193.081 630.467 193.882 627.531 195.394C624.683 196.907 622.636 199.755 621.391 203.67C620.234 207.586 619.611 213.281 619.611 220.667Z" fill="#262626"/>
<path d="M721.68 318.109C715.629 318.109 710.2 317.219 705.395 315.528C700.589 313.838 696.941 311.168 694.182 307.697C691.513 304.138 690.178 299.955 690.178 294.883V291.501C690.178 286.251 691.691 281.802 694.627 278.153C697.564 274.504 701.39 271.746 706.107 269.877C710.734 268.008 715.54 267.029 720.612 267.029L727.019 274.326C724.082 274.326 721.324 274.771 719.01 275.75C716.607 276.729 714.739 278.153 713.315 280.022C711.891 281.891 711.179 284.293 711.179 287.141V289.989C711.179 294.26 712.603 297.375 715.451 299.332C718.298 301.29 722.392 302.269 727.642 302.269H747.131C752.648 302.269 756.919 301.201 760.123 299.154C763.237 297.108 764.839 293.904 764.839 289.633V286.607C764.839 284.026 764.305 281.802 763.237 280.022C762.17 278.242 760.479 276.818 758.076 275.839C755.673 274.86 752.47 274.326 748.465 274.326H724.527C715.006 274.326 707.798 272.458 702.992 268.809C698.187 265.161 695.784 260.444 695.784 254.838C695.784 250.033 697.208 246.117 699.966 243.002C702.725 239.888 706.641 237.841 711.713 236.773C707.62 234.904 704.505 232.413 702.191 229.476C699.878 226.54 698.187 223.247 697.297 219.865C696.318 216.395 695.873 212.924 695.873 209.276C695.873 201.979 697.386 196.105 700.322 191.478C703.259 186.851 707.62 183.469 713.404 181.244C719.099 179.02 726.218 177.952 734.672 177.952H786.375V190.321L769.378 192.635C770.535 193.792 771.869 195.215 773.204 196.906C774.539 198.597 775.696 200.822 776.675 203.491C777.654 206.25 778.099 209.81 778.099 214.259C778.099 219.598 777.031 224.493 774.806 228.942C772.581 233.392 769.022 236.862 763.949 239.532C758.966 242.113 752.203 243.447 743.749 243.447H727.464C723.638 243.447 720.523 244.07 718.209 245.227C715.806 246.384 714.65 248.431 714.65 251.278C714.65 253.681 715.629 255.372 717.497 256.262C719.366 257.241 721.413 257.686 723.549 257.686H751.936C759.233 257.686 765.373 258.664 770.446 260.533C775.518 262.402 779.344 265.428 782.014 269.432C784.595 273.526 785.93 278.865 785.93 285.539V288.565C785.93 297.731 782.993 304.939 777.12 310.189C771.246 315.439 762.17 318.02 750.067 318.02H721.68V318.109V318.109ZM730.846 226.718H741.257C745.707 226.718 749.088 226.006 751.58 224.671C753.983 223.336 755.673 221.467 756.563 219.153C757.453 216.84 757.898 214.259 757.898 211.411C757.898 207.318 757.275 204.114 756.029 201.712C754.784 199.309 753.004 197.529 750.69 196.461C748.376 195.393 745.529 194.86 742.236 194.86H732.269C726.93 194.86 722.837 196.016 719.989 198.419C717.23 200.822 715.806 204.826 715.806 210.611C715.806 216.395 717.141 220.488 719.722 223.069C722.214 225.472 725.951 226.718 730.846 226.718Z" fill="#262626"/>
<path d="M969.427 275.038C966.668 275.038 963.553 274.949 960.083 274.771C956.523 274.593 953.053 274.326 949.493 274.059C945.934 273.792 942.73 273.347 939.793 272.902C936.857 272.457 934.365 271.923 932.496 271.3V258.219H973.787C976.724 258.219 979.304 257.952 981.351 257.507C983.398 257.062 985 256.083 986.068 254.659C987.135 253.235 987.669 251.1 987.669 248.252V244.87C987.669 241.934 986.691 239.531 984.733 237.84C982.775 236.15 979.304 235.26 974.41 235.26H959.905C954.299 235.26 949.315 234.459 944.955 232.946C940.594 231.433 937.213 228.764 934.632 225.115C932.14 221.466 930.895 216.394 930.895 210.076V204.737C930.895 198.685 932.051 193.613 934.365 189.608C936.679 185.604 940.594 182.578 946.023 180.532C951.451 178.485 958.659 177.417 967.736 177.417C971.562 177.417 975.656 177.595 980.105 177.951C984.555 178.307 988.737 178.752 992.831 179.286C996.924 179.82 1000.13 180.443 1002.44 181.155V194.236H963.464C959.015 194.236 955.722 194.948 953.32 196.461C951.006 197.973 949.849 200.732 949.849 204.737V208.118C949.849 210.699 950.383 212.746 951.451 213.991C952.519 215.326 954.121 216.216 956.256 216.661C958.392 217.106 960.973 217.373 963.909 217.373H978.77C988.203 217.373 995.144 219.509 999.683 223.78C1004.22 228.052 1006.45 234.192 1006.45 242.023V249.854C1006.45 256.261 1004.93 261.333 1002 265.071C999.06 268.808 994.788 271.389 989.182 272.813C983.754 274.237 977.169 275.038 969.427 275.038Z" fill="#262626"/>
<path d="M1050.94 316.329L1062.06 273.97C1057.44 273.97 1053.25 273.08 1049.43 271.3C1045.69 269.52 1042.49 266.851 1039.91 263.291C1037.33 259.732 1035.1 255.104 1033.5 249.498L1013.83 178.129H1036.7L1054.05 244.96C1054.86 247.718 1055.92 249.765 1057.08 251.189C1058.24 252.613 1059.48 253.68 1060.64 254.303C1061.8 254.926 1062.95 255.371 1063.93 255.46C1064.91 255.549 1065.62 255.638 1065.98 255.638L1085.82 178.04H1108.34L1077.55 298.531L1069.01 316.329H1050.94Z" fill="#262626"/>
<path d="M1156.57 275.038C1153.81 275.038 1150.7 274.949 1147.23 274.771C1143.67 274.593 1140.2 274.326 1136.64 274.059C1133.08 273.792 1129.87 273.347 1126.94 272.902C1124 272.457 1121.51 271.923 1119.64 271.3V258.219H1160.93C1163.87 258.219 1166.45 257.952 1168.49 257.507C1170.54 257.062 1172.14 256.083 1173.21 254.659C1174.28 253.235 1174.81 251.1 1174.81 248.252V244.87C1174.81 241.934 1173.83 239.531 1171.88 237.84C1169.92 236.15 1166.45 235.26 1161.55 235.26H1147.05C1141.44 235.26 1136.46 234.459 1132.1 232.946C1127.74 231.433 1124.36 228.764 1121.77 225.115C1119.28 221.466 1118.04 216.394 1118.04 210.076V204.737C1118.04 198.685 1119.19 193.613 1121.51 189.608C1123.82 185.604 1127.74 182.578 1133.17 180.532C1138.59 178.485 1145.8 177.417 1154.88 177.417C1158.71 177.417 1162.8 177.595 1167.25 177.951C1171.7 178.307 1175.88 178.752 1179.97 179.286C1184.07 179.82 1187.27 180.443 1189.58 181.155V194.236H1150.61C1146.16 194.236 1142.87 194.948 1140.46 196.461C1138.15 197.973 1136.99 200.732 1136.99 204.737V208.118C1136.99 210.699 1137.53 212.746 1138.59 213.991C1139.66 215.326 1141.26 216.216 1143.4 216.661C1145.53 217.106 1148.12 217.373 1151.05 217.373H1165.91C1175.35 217.373 1182.29 219.509 1186.83 223.78C1191.36 228.052 1193.59 234.192 1193.59 242.023V249.854C1193.59 256.261 1192.08 261.333 1189.14 265.071C1186.2 268.808 1181.93 271.389 1176.32 272.813C1170.99 274.237 1164.31 275.038 1156.57 275.038Z" fill="#262626"/>
<path d="M1005.88 129C997.065 129 989.537 125.901 983.296 119.704C977.099 113.463 974 105.957 974 97.1848C974 88.3691 977.099 80.8626 983.296 74.6654C989.537 68.4682 997.065 65.3696 1005.88 65.3696C1014.65 65.3696 1022.14 68.4682 1028.33 74.6654C1034.58 80.8626 1037.7 88.3691 1037.7 97.1848C1037.7 105.957 1034.58 113.463 1028.33 119.704C1022.14 125.901 1014.65 129 1005.88 129ZM1005.88 115.776C1010.99 115.776 1015.35 113.965 1018.97 110.343C1022.64 106.721 1024.47 102.335 1024.47 97.1848C1024.47 92.0351 1022.64 87.649 1018.97 84.0267C1015.35 80.3608 1010.99 78.5278 1005.88 78.5278C1000.73 78.5278 996.323 80.3608 992.657 84.0267C989.035 87.649 987.224 92.0351 987.224 97.1848C987.224 102.335 989.035 106.721 992.657 110.343C996.323 113.965 1000.73 115.776 1005.88 115.776Z" fill="#36B4D4"/>
<path d="M1111.21 129V97.1848C1111.21 88.4128 1108.09 80.9281 1101.85 74.7309C1095.65 68.4901 1088.17 65.3696 1079.4 65.3696C1071.76 65.3696 1065.06 67.7481 1059.3 72.5051C1058.64 71.2832 1057.84 70.1921 1056.88 69.232C1054.3 66.6571 1051.2 65.3696 1047.58 65.3696V129C1051.2 129 1054.3 127.713 1056.88 125.138C1059.45 122.563 1060.74 119.464 1060.74 115.842V97.6431C1060.74 92.5806 1062.44 88.2164 1065.85 84.5504C1069.25 80.8845 1073.55 78.8987 1078.74 78.5932H1078.94C1084.26 78.5932 1088.78 80.3826 1092.49 83.9612C1096.2 87.5399 1098.05 91.9478 1098.05 97.1848V115.842C1098.05 119.464 1099.34 122.563 1101.92 125.138C1104.49 127.713 1107.59 129 1111.21 129Z" fill="#36B4D4"/>
<path d="M1178.57 129C1178.57 125.509 1177.39 122.497 1175.04 119.966C1172.42 117.173 1169.21 115.776 1165.42 115.776H1152.85C1147.7 115.776 1143.31 113.965 1139.69 110.343C1136.07 106.721 1134.25 102.335 1134.25 97.1848C1134.25 92.0351 1136.07 87.649 1139.69 84.0267C1143.31 80.3608 1147.7 78.5278 1152.85 78.5278C1158 78.5278 1162.38 80.3389 1166 83.9612C1167.88 85.8379 1169.3 88.0418 1170.26 90.573H1150.69C1147.06 90.573 1143.96 91.8605 1141.39 94.4354C1138.82 97.0103 1137.53 100.109 1137.53 103.731H1184.01C1184.44 101.636 1184.66 99.4542 1184.66 97.1848C1184.66 94.9155 1184.44 92.7115 1184.01 90.573C1182.61 84.3322 1179.73 79.0297 1175.37 74.6654C1169.12 68.4682 1161.62 65.3696 1152.85 65.3696C1144.07 65.3696 1136.57 68.4682 1130.33 74.6654C1124.13 80.8626 1121.03 88.3691 1121.03 97.1848C1121.03 105.957 1124.13 113.463 1130.33 119.704C1136.57 125.901 1144.07 129 1152.85 129H1178.57Z" fill="#36B4D4"/>
</svg>
